<svg width="512" height="512" viewBox="0 0 512 512" fill="none" xmlns="http://www.w3.org/2000/svg">
  <defs>
    <linearGradient id="grad1" x1="0%" y1="0%" x2="100%" y2="100%">
      <stop offset="0%" style="stop-color:#3B82F6;stop-opacity:1" />
      <stop offset="50%" style="stop-color:#8B5CF6;stop-opacity:1" />
      <stop offset="100%" style="stop-color:#06B6D4;stop-opacity:1" />
    </linearGradient>
    <filter id="glow">
      <feGaussianBlur stdDeviation="3" result="coloredBlur"/>
      <feMerge> 
        <feMergeNode in="coloredBlur"/>
        <feMergeNode in="SourceGraphic"/>
      </feMerge>
    </filter>
  </defs>
  
  <!-- خلفية دائرية -->
  <circle cx="256" cy="256" r="240" fill="url(#grad1)" filter="url(#glow)"/>
  
  <!-- قفل رئيسي -->
  <g transform="translate(256,256)">
    <!-- جسم القفل -->
    <rect x="-60" y="-20" width="120" height="80" rx="15" fill="white" opacity="0.95"/>
    
    <!-- قوس القفل -->
    <path d="M -40,-20 C -40,-60 -20,-80 0,-80 C 20,-80 40,-60 40,-20" 
          stroke="white" stroke-width="16" fill="none" stroke-linecap="round" opacity="0.95"/>
    
    <!-- ثقب المفتاح -->
    <circle cx="0" cy="10" r="12" fill="url(#grad1)"/>
    <rect x="-4" y="10" width="8" height="20" rx="4" fill="url(#grad1)"/>
    
    <!-- نجوم أمنية -->
    <g opacity="0.8">
      <polygon points="-80,-60 -75,-50 -85,-50" fill="white" transform="rotate(45)"/>
      <polygon points="80,-60 85,-50 75,-50" fill="white" transform="rotate(-45)"/>
      <polygon points="-80,80 -75,90 -85,90" fill="white" transform="rotate(135)"/>
      <polygon points="80,80 85,90 75,90" fill="white" transform="rotate(-135)"/>
    </g>
    
    <!-- دائرة التشفير -->
    <circle cx="0" cy="0" r="90" stroke="white" stroke-width="4" fill="none" opacity="0.3" stroke-dasharray="10,5"/>
    <circle cx="0" cy="0" r="110" stroke="white" stroke-width="2" fill="none" opacity="0.2" stroke-dasharray="5,10"/>
  </g>
  
  <!-- نص KnouxCrypt -->
  <text x="256" y="450" text-anchor="middle" fill="white" font-size="36" font-weight="bold" font-family="Arial">
    KnouxCrypt™
  </text>
</svg>
